<?xml version="1.0" encoding="UTF-8"?>
<!DOCTYPE svg PUBLIC "-//W3C//DTD SVG 1.1//EN" "http://www.w3.org/Graphics/SVG/1.1/DTD/svg11.dtd">
<!-- Creator: CorelDRAW X7 -->
<svg xmlns="http://www.w3.org/2000/svg" xml:space="preserve" width="2126px" height="2126px" version="1.1" style="shape-rendering:geometricPrecision; text-rendering:geometricPrecision; image-rendering:optimizeQuality; fill-rule:evenodd; clip-rule:evenodd"
viewBox="0 0 2126 2126"
 xmlns:xlink="http://www.w3.org/1999/xlink">
 <defs>
  <style type="text/css">
   <![CDATA[
    .fil0 {fill:none}
    .fil4 {fill:black}
    .fil1 {fill:black;fill-rule:nonzero}
    .fil2 {fill:#B2B3B3;fill-rule:nonzero}
    .fil3 {fill:url(#id0)}
    .fil6 {fill:url(#id1);fill-rule:nonzero}
    .fil5 {fill:url(#id2);fill-rule:nonzero}
   ]]>
  </style>
  <linearGradient id="id0" gradientUnits="userSpaceOnUse" x1="640.643" y1="1185.72" x2="1485.35" y2="454.185">
   <stop offset="0" style="stop-opacity:1; stop-color:#B2B3B3"/>
   <stop offset="0.133333" style="stop-opacity:1; stop-color:#9E9E9E"/>
   <stop offset="0.231373" style="stop-opacity:1; stop-color:#FEFEFE"/>
   <stop offset="0.54902" style="stop-opacity:1; stop-color:#FEFEFE"/>
   <stop offset="0.8" style="stop-opacity:1; stop-color:#D9DADA"/>
   <stop offset="1" style="stop-opacity:1; stop-color:#898989"/>
  </linearGradient>
  <linearGradient id="id1" gradientUnits="userSpaceOnUse" x1="1063" y1="819.955" x2="1261.12" y2="476.793">
   <stop offset="0" style="stop-opacity:1; stop-color:#028181"/>
   <stop offset="1" style="stop-opacity:1; stop-color:#00ABAD"/>
  </linearGradient>
  <linearGradient id="id2" gradientUnits="userSpaceOnUse" x1="864.873" y1="1163.12" x2="1232.54" y2="526.305">
   <stop offset="0" style="stop-opacity:1; stop-color:#E95721"/>
   <stop offset="0.568627" style="stop-opacity:1; stop-color:#F4A869"/>
   <stop offset="1" style="stop-opacity:1; stop-color:#FFF9B2"/>
  </linearGradient>
 </defs>
 <g id="Layer_x0020_1">
  <metadata id="CorelCorpID_0Corel-Layer"/>
  <rect class="fil0" width="2126" height="2126"/>
  <path class="fil1" d="M418 1458l65 0 -69 216 -78 0 -42 -148 -41 148 -77 0 -69 -216 67 0 40 169 48 -169 65 0 47 169 44 -169zm155 120l63 0 0 -41c0,-4 0,-7 -2,-9 -1,-1 -4,-2 -9,-2l-41 0c-4,0 -7,1 -9,2 -1,2 -2,5 -2,9l0 41zm-36 -72l134 0c18,0 27,9 27,27l0 65 -125 0 0 45c0,4 1,7 2,9 2,1 5,2 9,2l41 0c5,0 8,-1 9,-2 1,-2 2,-5 2,-9l0 -22 62 0 0 26c0,18 -10,27 -28,27l-133 0c-18,0 -27,-9 -27,-27l0 -114c0,-18 9,-27 27,-27zm324 137l0 -106c0,-4 -1,-7 -2,-9 -1,-1 -4,-2 -9,-2l-34 0c-8,0 -12,4 -12,11l0 106c0,7 4,11 12,11l34 0c5,0 8,-1 9,-2 1,-2 2,-5 2,-9zm-37 -137l74 0c18,0 27,9 27,27l0 114c0,18 -9,27 -27,27l-74 0c-10,0 -17,-3 -20,-10l0 10 -64 0 0 -232 64 0 0 74c3,-7 10,-10 20,-10zm791 137l0 -57c0,-4 -1,-7 -2,-8 -1,-2 -4,-2 -9,-2l-90 0c-19,0 -28,-10 -28,-28l0 -62c0,-18 9,-28 28,-28l139 0c19,0 28,10 28,28l0 40 -67 0 0 -36c0,-5 -1,-8 -2,-9 -2,-2 -4,-2 -9,-2l-39 0c-5,0 -8,0 -9,2 -1,1 -2,4 -2,9l0 54c0,5 1,8 2,9 1,1 4,2 9,2l90 0c19,0 28,9 28,27l0 65c0,18 -9,27 -28,27l-139 0c-18,0 -28,-9 -28,-27l0 -41 67 0 0 37c0,4 1,7 2,9 2,1 5,2 9,2l39 0c5,0 8,-1 9,-2 1,-2 2,-5 2,-9zm230 0l0 -106c0,-4 0,-7 -2,-9 -1,-1 -4,-2 -8,-2l-38 0c-4,0 -7,1 -8,2 -2,2 -3,5 -3,9l0 106c0,4 1,7 3,9 1,1 4,2 8,2l38 0c4,0 7,-1 8,-2 2,-2 2,-5 2,-9zm-95 -137l131 0c19,0 28,9 28,27l0 114c0,18 -9,27 -28,27l-131 0c-18,0 -27,-9 -27,-27l0 -114c0,-18 9,-27 27,-27zm269 168l-63 0 0 -232 63 0 0 232z"/>
  <path class="fil2" d="M1087 1463l-32 0c-4,0 -7,1 -8,2 -2,1 -3,4 -3,9l0 32 43 0 0 20 -43 0 0 148 -63 0 0 -148 -25 0 0 -20 25 0 0 -37c0,-18 9,-27 27,-27l79 0 0 21zm146 180l0 -106c0,-4 -1,-7 -2,-9 -2,-1 -5,-2 -9,-2l-38 0c-4,0 -7,1 -8,2 -2,2 -2,5 -2,9l0 106c0,4 0,7 2,9 1,1 4,2 8,2l38 0c4,0 7,-1 9,-2 1,-2 2,-5 2,-9zm-95 -137l131 0c18,0 27,9 27,27l0 114c0,18 -9,27 -27,27l-131 0c-19,0 -28,-9 -28,-27l0 -114c0,-18 9,-27 28,-27zm304 -1l23 0 0 24 -35 0c-17,0 -25,9 -25,26l0 119 -64 0 0 -168 64 0 0 20c5,-14 17,-21 37,-21z"/>
  <path class="fil1" d="M499 1758l16 0 -26 78 -21 0 -17 -60 -17 60 -21 0 -26 -78 17 0 19 66 19 -66 18 0 18 66 21 -66zm65 43l31 0 0 -14c0,-2 0,-3 -1,-4 0,0 -1,0 -3,0l-23 0c-1,0 -2,0 -3,0 0,1 -1,2 -1,4l0 14zm-6 -26l43 0c7,0 10,4 10,10l0 24 -47 0 0 16c0,1 1,3 1,3 1,0 2,1 3,1l23 0c2,0 3,-1 3,-1 1,0 1,-2 1,-3l0 -7 16 0 0 8c0,7 -4,10 -10,10l-43 0c-6,0 -10,-3 -10,-10l0 -41c0,-6 4,-10 10,-10zm137 50l0 -38c0,-2 -1,-3 -1,-4 -1,0 -2,0 -3,0l-21 0c-3,0 -4,1 -4,4l0 4 -1 0 0 30 1 0 0 4c0,2 1,4 4,4l21 0c1,0 2,-1 3,-1 0,0 1,-2 1,-3zm-22 -50l28 0c7,0 10,4 10,10l0 41c0,7 -3,10 -10,10l-28 0c-4,0 -7,-1 -8,-4l0 4 -16 0 0 -84 16 0 0 28c1,-3 4,-5 8,-5zm163 -15l-13 0c-2,0 -3,0 -3,1 -1,0 -1,1 -1,3l0 11 17 0 0 8 -17 0 0 53 -16 0 0 -53 -9 0 0 -8 9 0 0 -13c0,-6 3,-10 10,-10l23 0 0 8zm76 65l0 -38c0,-2 0,-3 0,-4 -1,0 -2,0 -3,0l-22 0c-2,0 -3,0 -4,0 0,1 0,2 0,4l0 38c0,1 0,3 0,3 1,0 2,1 4,1l22 0c1,0 2,-1 3,-1 0,0 0,-2 0,-3zm-35 -50l42 0c6,0 9,4 9,10l0 41c0,7 -3,10 -9,10l-42 0c-7,0 -10,-3 -10,-10l0 -41c0,-6 3,-10 10,-10zm119 0l11 0 0 8 -14 0c-6,0 -9,3 -9,10l0 43 -16 0 0 -61 16 0 0 8c2,-5 6,-8 12,-8zm137 50l0 -21c0,-1 0,-2 0,-3 -1,0 -2,-1 -3,-1l-35 0c-7,0 -10,-3 -10,-9l0 -23c0,-7 3,-10 10,-10l45 0c7,0 10,3 10,10l0 13 -17 0 0 -12c0,-1 0,-2 -1,-3 0,0 -1,0 -3,0l-23 0c-2,0 -3,0 -4,0 0,1 0,2 0,3l0 20c0,2 0,3 0,3 1,1 2,1 4,1l34 0c7,0 10,3 10,10l0 23c0,7 -3,10 -10,10l-45 0c-6,0 -10,-3 -10,-10l0 -13 17 0 0 12c0,1 0,3 1,3 0,0 1,1 3,1l24 0c1,0 2,-1 3,-1 0,0 0,-2 0,-3zm101 0l0 -38c0,-2 0,-3 0,-4 -1,0 -2,0 -4,0l-22 0c-1,0 -2,0 -3,0 0,1 0,2 0,4l0 38c0,1 0,3 0,3 1,0 2,1 3,1l22 0c2,0 3,-1 4,-1 0,0 0,-2 0,-3zm-36 -50l42 0c7,0 10,4 10,10l0 41c0,7 -3,10 -10,10l-42 0c-6,0 -9,-3 -9,-10l0 -41c0,-6 3,-10 9,-10zm109 61l-16 0 0 -84 16 0 0 84zm86 -61l16 0 0 61 -16 0 0 -4c-1,3 -3,4 -7,4l-28 0c-7,0 -10,-3 -10,-10l0 -51 16 0 0 50c0,1 0,3 1,3 0,0 1,1 3,1l21 0c1,0 2,-1 3,-1 1,-1 1,-2 1,-3l0 -50zm91 8l-15 0 0 41c0,2 1,3 1,3 1,1 2,1 3,1l11 0 0 8 -21 0c-6,0 -10,-3 -10,-10l0 -43 -9 0 0 -8 9 0 0 -12 16 0 0 12 15 0 0 8zm52 53l-17 0 0 -61 17 0 0 61zm-17 -72l0 -12 17 0 0 12 -17 0zm103 61l0 -38c0,-2 0,-3 -1,-4 0,0 -1,0 -3,0l-22 0c-2,0 -3,0 -3,0 -1,1 -1,2 -1,4l0 38c0,1 0,3 1,3 0,0 1,1 3,1l22 0c2,0 3,-1 3,-1 1,0 1,-2 1,-3zm-36 -50l42 0c7,0 10,4 10,10l0 41c0,7 -3,10 -10,10l-42 0c-7,0 -10,-3 -10,-10l0 -41c0,-6 3,-10 10,-10zm115 0l28 0c7,0 10,4 10,10l0 51 -16 0 0 -49c0,-2 0,-3 -1,-4 0,0 -2,0 -3,0l-21 0c-3,0 -4,1 -4,4l0 4 0 0 0 45 -17 0 0 -61 17 0 0 5c1,-3 3,-5 7,-5z"/>
  <polygon class="fil3" points="1063,1345 836,1214 609,1082 609,820 609,558 836,426 1063,295 1290,426 1517,558 1517,820 1517,1082 1290,1214 "/>
  <path class="fil4" d="M1053 1361c-154,-89 -309,-178 -464,-268l0 -546c158,-92 316,-183 474,-274 158,91 316,182 474,273l0 547 -474 274 -10 -6zm10 -16l-454 -263 0 -524 454 -263 454 263 0 524 -454 263z"/>
  <path class="fil5" d="M1063 1277c132,-76 264,-152 396,-228l-126 -73c-83,48 -166,96 -250,144l35 -268 -110 -64 -215 165c0,-97 0,-193 0,-289l-126 -73c0,153 0,305 0,458l118 68 190 -144 -31 236 119 68zm167 -752l-58 98 58 -98z"/>
  <polygon class="fil6" points="667,591 865,477 865,477 1063,362 1189,435 928,586 928,586 919,591 1072,679 1143,555 1143,555 1206,445 1459,591 1459,820 1459,820 1459,1049 1333,976 1333,820 1333,820 1333,664 1253,618 1181,742 1181,742 1118,851 1118,851 1118,852 1063,820 1061,819 1008,788 1008,788 793,664 793,664 "/>
 </g>
</svg>
